<svg xmlns="http://www.w3.org/2000/svg" viewBox="0 0 180 36">
<path style="fill:#101419; font-weight:400;letter-spacing:-.05px;font-size:15px;line-height:25px" d="M164.12,32.46l3.3-2.25a6,6,0,0,0,1.78,2.2,4.36,4.36,0,0,0,2.55.69,4.14,4.14,0,0,0,2.78-.89,3.55,3.55,0,0,0,1-2.84V27.12h-.07a4.17,4.17,0,0,1-1.77,1.56,5.8,5.8,0,0,1-2.73.66,7.7,7.7,0,0,1-5.83-2.51,9.72,9.72,0,0,1-2.35-6.91,9.55,9.55,0,0,1,2.42-6.87,7.64,7.64,0,0,1,5.69-2.54,5.64,5.64,0,0,1,4.78,2.22h.06V11H180V28.83a7.69,7.69,0,0,1-2.3,6,8.52,8.52,0,0,1-5.95,2.08A9,9,0,0,1,167,35.69a7.1,7.1,0,0,1-2.84-3.23Zm11.46-10.72V18.06a3.51,3.51,0,0,0-1.06-2.58,3.8,3.8,0,0,0-2.83-1.06,4,4,0,0,0-3.22,1.42,6,6,0,0,0-1.23,4.08A6,6,0,0,0,168.49,24a4.09,4.09,0,0,0,3.2,1.42,3.81,3.81,0,0,0,2.83-1.07,3.53,3.53,0,0,0,1.06-2.61Zm-30.67,7.1V11h4.25v1.72h.07a5.79,5.79,0,0,1,2-1.58,6,6,0,0,1,2.72-.64,6.18,6.18,0,0,1,4.69,1.77,6.75,6.75,0,0,1,1.7,4.89V28.84H156V18.24a4.54,4.54,0,0,0-.71-2.77,2.9,2.9,0,0,0-2.45-.92,3.44,3.44,0,0,0-2.55.92,3.36,3.36,0,0,0-.91,2.47v10.9ZM136.57,8.31H141V4.16h-4.41Zm0,20.53H141V11h-4.41Zm-11.54,0v-18h4.18v1.9h.07a4,4,0,0,1,1.51-1.63,4.06,4.06,0,0,1,2.19-.61,4,4,0,0,1,1.62.34l-.67,4.28a4.19,4.19,0,0,0-1.4-.28q-3.08,0-3.08,4.11v9.88Zm-19.87,7.57V11h4.22v1.71h.07l.17-.25a3.66,3.66,0,0,1,.53-.52,7.28,7.28,0,0,1,.94-.68,5.45,5.45,0,0,1,1.38-.53,7,7,0,0,1,1.86-.24,7.49,7.49,0,0,1,5.6,2.54,9.61,9.61,0,0,1,2.41,6.88A9.82,9.82,0,0,1,120,26.82a7.35,7.35,0,0,1-5.63,2.53,6.62,6.62,0,0,1-1.82-.24,5.62,5.62,0,0,1-1.35-.55,8.78,8.78,0,0,1-.88-.64,4,4,0,0,1-.55-.56l-.13-.23h-.07v9.28Zm4.42-18.35v3.68a3.53,3.53,0,0,0,1.06,2.61,3.81,3.81,0,0,0,2.83,1.07,4.09,4.09,0,0,0,3.2-1.42,6,6,0,0,0,1.25-4.08,6,6,0,0,0-1.23-4.08,4,4,0,0,0-3.22-1.42,3.8,3.8,0,0,0-2.83,1.06,3.51,3.51,0,0,0-1.06,2.58ZM84.79,20.91l4.79-1.05a8.68,8.68,0,0,0,1.44,4,4,4,0,0,0,3.26,1.23,5.94,5.94,0,0,0,3.07-.69,2.26,2.26,0,0,0,1.14-2.05,2.49,2.49,0,0,0-1.09-2.18,22,22,0,0,0-5-2,11.89,11.89,0,0,1-5.22-2.79,5.69,5.69,0,0,1-1.53-4,6.25,6.25,0,0,1,2.14-4.75,8.29,8.29,0,0,1,5.82-2,10.1,10.1,0,0,1,5.76,1.62,7.17,7.17,0,0,1,3,4.83L98,12.22a4.73,4.73,0,0,0-7-2.67,2.18,2.18,0,0,0-.86,1.79,1.78,1.78,0,0,0,1,1.61l.13.07a39.39,39.39,0,0,0,4,1.55l.93.32a13.53,13.53,0,0,1,5.37,2.92A6,6,0,0,1,103,22.06a6.62,6.62,0,0,1-2.36,5.2,9.24,9.24,0,0,1-6.31,2.07,9.67,9.67,0,0,1-6.5-2.12,9.37,9.37,0,0,1-3-6.3ZM66.46,32.46l3.3-2.25a6,6,0,0,0,1.77,2.2,4.38,4.38,0,0,0,2.56.69,4.16,4.16,0,0,0,2.78-.89,3.55,3.55,0,0,0,1-2.84V27.12h-.07a4.17,4.17,0,0,1-1.77,1.56,5.8,5.8,0,0,1-2.73.66,7.68,7.68,0,0,1-5.83-2.51,9.68,9.68,0,0,1-2.35-6.91,9.55,9.55,0,0,1,2.42-6.87,7.62,7.62,0,0,1,5.69-2.54A5.6,5.6,0,0,1,78,12.73h.07V11h4.23V28.83a7.69,7.69,0,0,1-2.3,6,8.53,8.53,0,0,1-6,2.08,8.92,8.92,0,0,1-4.79-1.21,7.1,7.1,0,0,1-2.84-3.23ZM77.92,21.74V18.06a3.51,3.51,0,0,0-1.06-2.58A3.82,3.82,0,0,0,74,14.42a4,4,0,0,0-3.21,1.42,6,6,0,0,0-1.23,4.08A6,6,0,0,0,70.83,24,4.07,4.07,0,0,0,74,25.42a3.83,3.83,0,0,0,2.84-1.07,3.53,3.53,0,0,0,1.06-2.61ZM58,8.31h4.42V4.16H58Zm0,20.53h4.42V11H58ZM41.85,14.66h4.89A3.29,3.29,0,0,0,48.91,14a2.43,2.43,0,0,0,.79-2A2.63,2.63,0,0,0,48.93,10a3.24,3.24,0,0,0-2.19-.68H41.85Zm0,9.78h5.56q3.27,0,3.27-3.11a2.86,2.86,0,0,0-.87-2.22,3.42,3.42,0,0,0-2.37-.78H41.85Zm-4.66,4.4V5.14H47.24A7,7,0,0,1,52.31,7a6.06,6.06,0,0,1,1.91,4.52A4.91,4.91,0,0,1,51.65,16v0a5.69,5.69,0,0,1,2.49,2.05,5.81,5.81,0,0,1,1,3.37A7.23,7.23,0,0,1,53,26.87q-2.06,2-6.8,2Z"></path>
<path style="fill:#125eed;" d="M6.41,10.34l-.07,0C2.8,9.23,0,9.31,0,4.46V0H15.69A21.41,21.41,0,0,1,20,.41,9.58,9.58,0,0,1,23.4,1.77a6.35,6.35,0,0,1,2.17,2.5,8.72,8.72,0,0,1,.77,3.85,7,7,0,0,1-1.15,4.14,7.2,7.2,0,0,1-3,2.55"></path>
<path style="fill:#00ddc1" d="M22.21,14.86a13.38,13.38,0,0,1,4.37,3.53,8.79,8.79,0,0,1,1.53,5.12,9.25,9.25,0,0,1-1,4.4,8.49,8.49,0,0,1-2.65,3,11.86,11.86,0,0,1-3.81,1.75,17,17,0,0,1-4.4.57H0V15c0-3.45,2.59-5,6.42-4.59A63.38,63.38,0,0,1,22.21,14.86Z"></path>
</svg>